# xmcd
#
# Track frame offsets:
#	150
#	12642
#	32612
#	46029
#	61445
#	79828
#	103507
#	118944
#	137380
#	153706
#	173675
#	191593
#	215846
#	228349
#	246051
#
# Disc length: 3580 seconds
#
# Revision: 1
# Processed by: cddbd v1.5.2PL0 Copyright (c) Steve Scherf et al.
# Submitted via: audiograbber 1.83.01
#
DISCID=c90dfa0f
DTITLE=Gaither Vocal Band - Pure and Simple
DYEAR=1900
DGENRE=
TTITLE0=Rasslin' Jacob
TTITLE1=Come To Jesus
TTITLE2=I Dont Want To Get Adjusted
TTITLE3=Glorious Freedom
TTITLE4=Whole Lotta Shakin
TTITLE5=The Love Of God
TTITLE6=Do You Wanna Be Well
TTITLE7=Winds Of This World
TTITLE8=Rumormill
TTITLE9=The Old Rugged Cross Made The Difference
TTITLE10=Fool's Gold
TTITLE11=Cup Of Sorrow
TTITLE12=I'm Rich
TTITLE13=I'll Pray For You
TTITLE14=Sow Mercy
EXTD=
EXTT0=
EXTT1=
EXTT2=
EXTT3=
EXTT4=
EXTT5=
EXTT6=
EXTT7=
EXTT8=
EXTT9=
EXTT10=
EXTT11=
EXTT12=
EXTT13=
EXTT14=
PLAYORDER=
